<?xml version="1.0" encoding="UTF-8"?>
<svg id="_圖層_1" data-name="圖層 1" xmlns="http://www.w3.org/2000/svg" viewBox="0 0 267.18 84.31">
  <defs>
    <style>
      .cls-1 {
        fill: #47bcbe;
      }

      .cls-1, .cls-2 {
        stroke-width: 0px;
      }

      .cls-2 {
        fill: #fff;
      }
    </style>
  </defs>
  <g>
    <polygon class="cls-1" points="150.47 8.84 150.36 8.84 150.3 8.95 150.47 8.84"/>
    <polygon class="cls-1" points="150.36 78.69 150.36 78.69 150.36 78.69 150.36 78.69"/>
    <path class="cls-1" d="m177.04,61.24h-16.71c-.5,0-.97-.29-1.22-.77l-8.36-15.92c-.25-.48-.25-1.06,0-1.55l8.36-15.93c.25-.48.72-.77,1.22-.77h16.71c.5,0,.97.29,1.22.77l3.52,6.72c.19.36.65.49,1,.27l12.55-7.97c.31-.2.42-.6.25-.92l-5.99-11.41-7.72-4.91h-26.14l-8.04,5.11-13.04,24.84v9.95l13.09,24.95,7.87,5h26.21l7.79-4.95,5.74-10.95c.17-.32.06-.72-.25-.92l-12.55-7.97c-.35-.22-.81-.1-1,.27l-3.3,6.29c-.25.48-.72.77-1.22.77Z"/>
  </g>
  <path class="cls-1" d="m120.53,8.46h-5.6l-17.33,20.18c-.22.25-.57.25-.79,0l-17.2-20.18h-5.76l-6.64,7.73v6.75l17.18,20.15c.22.26.22.67,0,.92l-17.28,20.12v6.69l6.68,7.83h5.69l17.29-20.12c.22-.25.57-.25.79,0l17.17,20.15h5.81l6.62-7.71v-6.74l-17.18-20.16c-.22-.26-.22-.67,0-.92l17.27-20.1v-6.73l-6.71-7.87Z"/>
  <path class="cls-2" d="m42.91,52.76c-.13-.22-.09-.52.09-.69l9.3-9.33v-19.9l-14.03-14.07H10.38l-7.74,6.71v62.81c0,.19.14.34.3.34h18.49c.17,0,.3-.15.3-.34v-21.17c0-.18.13-.32.29-.32h3.75c.1,0,.19.06.24.15l12.21,21.38c.13.22.34.35.58.35h18.84l.05-.03-14.79-25.89Zm-6.81-15.86l-5.38,4.43c-.19.15-.42.24-.65.24h-8.29v-17.17h0s8.28,0,8.28,0c.23,0,.46.08.65.24l5.38,4.43c.28.23.44.59.44.97v5.9c0,.38-.16.74-.44.97Z"/>
  <polygon class="cls-1" points="247.06 7.5 247.06 7.5 247.06 7.5 247.06 7.5 247.06 7.51 247.06 7.5"/>
  <polygon class="cls-1" points="218.2 9.23 218.2 9.23 218.2 9.23 218.2 9.23"/>
  <polygon class="cls-1" points="245.57 9.23 245.54 9.23 245.57 9.25 245.57 9.23"/>
  <path class="cls-1" d="m263.13,26.03h0s-10.47-13.83-10.47-13.83l-9.45-4.51h-15.9l-9.43,4.5-10.47,13.83h0v51.92c0,.41.33.74.74.74h13.67c.41,0,.74-.33.74-.74v-19.38c0-.56.46-1.02,1.02-1.02h23.38c.56,0,1.02.46,1.02,1.02v19.38c0,.41.33.74.74.74h13.67c.41,0,.74-.33.74-.74V26.03h0Zm-15.14,14.79c0,.87-.71,1.58-1.58,1.58h-22.26c-.87,0-1.58-.71-1.58-1.58v-9.17c0-.34.11-.68.32-.95l5.47-7.22c.3-.39.77-.63,1.26-.63h11.32c.5,0,.96.23,1.26.63l5.47,7.22c.21.27.32.61.32.95v9.17Z"/>
</svg>